<svg width="217" height="27" viewBox="0 0 217 27" fill="none" xmlns="http://www.w3.org/2000/svg">
<path d="M13.8073 23.072C19.2536 23.072 23.6687 18.6569 23.6687 13.2106L26.7969 10.7918C26.942 11.5759 27.0179 12.3844 27.0179 13.2106C27.0179 20.5066 21.1033 26.4212 13.8073 26.4212C6.51125 26.4212 0.596664 20.5066 0.596664 13.2106C0.596664 5.91459 6.51125 0 13.8073 0C16.8994 0 19.7433 1.06233 21.9941 2.84192L19.4424 5.11678C17.8451 4.00259 15.9025 3.34917 13.8073 3.34917C8.36095 3.34917 3.94583 7.76428 3.94583 13.2106C3.94583 18.6569 8.36095 23.072 13.8073 23.072Z" fill="url(#paint0_angular_1_1720)"/>
<path d="M23.854 5.58276L25.5286 8.18767L13.7135 16.8397L8.78277 13.7696V10.0483L13.7135 13.0254L23.854 5.58276Z" fill="url(#paint1_linear_1_1720)"/>
<path d="M72.1719 2.82349H60.6126V23.5958H72.1719V2.82349Z" fill="#FF5F00"/>
<path d="M61.3466 13.2106C61.3448 11.2101 61.7981 9.23536 62.6723 7.43594C63.5464 5.63651 64.8185 4.05954 66.3923 2.82443C64.4434 1.2926 62.1029 0.339981 59.6383 0.0754483C57.1736 -0.189084 54.6843 0.245148 52.4548 1.32851C50.2253 2.41187 48.3455 4.10066 47.0304 6.20183C45.7153 8.30301 45.0179 10.7318 45.0179 13.2106C45.0179 15.6894 45.7153 18.1182 47.0304 20.2194C48.3455 22.3206 50.2253 24.0093 52.4548 25.0927C54.6843 26.1761 57.1736 26.6103 59.6383 26.3458C62.1029 26.0812 64.4434 25.1286 66.3923 23.5968C64.8186 22.3617 63.5465 20.7847 62.6723 18.9853C61.7981 17.1859 61.3448 15.2111 61.3466 13.2106Z" fill="#EB001B"/>
<path d="M87.7659 13.2106C87.766 15.6894 87.0687 18.1182 85.7537 20.2193C84.4386 22.3205 82.559 24.0093 80.3295 25.0927C78.1 26.176 75.6107 26.6103 73.1461 26.3458C70.6815 26.0812 68.341 25.1286 66.3922 23.5968C67.9646 22.3604 69.2357 20.7832 70.1097 18.9841C70.9837 17.1849 71.4379 15.2108 71.4379 13.2106C71.4379 11.2104 70.9837 9.23629 70.1097 7.43715C69.2357 5.63801 67.9646 4.06079 66.3922 2.82443C68.341 1.2926 70.6815 0.339975 73.1461 0.075446C75.6107 -0.189083 78.1 0.245157 80.3295 1.32853C82.559 2.41191 84.4386 4.1007 85.7537 6.20187C87.0687 8.30305 87.766 10.7318 87.7659 13.2106Z" fill="#F79E1B"/>
<path d="M86.5061 21.3961V20.9708H86.6776V20.8842H86.2408V20.9708H86.4124V21.3961H86.5061ZM87.3539 21.3961V20.8833H87.2201L87.0661 21.236L86.9121 20.8833H86.7781V21.3961H86.8727V21.0093L87.0171 21.3427H87.1151L87.2595 21.0084V21.3961H87.3539Z" fill="#F79E1B"/>
<path d="M127.552 6.45798L124.612 19.9981H121.057L123.997 6.45798H127.552ZM142.51 15.201L144.381 10.1164L145.458 15.201H142.51ZM146.478 19.9981H149.766L146.894 6.45798H143.861C143.178 6.45798 142.602 6.8484 142.347 7.45047L137.012 19.9981H140.746L141.487 17.976H146.048L146.478 19.9981ZM137.197 15.5777C137.212 12.0043 132.183 11.8063 132.217 10.2096C132.227 9.72447 132.697 9.20767 133.724 9.0755C134.233 9.01094 135.638 8.95856 137.231 9.68153L137.853 6.80911C136.998 6.50427 135.897 6.21069 134.528 6.21069C131.013 6.21069 128.54 8.05011 128.521 10.6862C128.498 12.6356 130.287 13.7225 131.632 14.3718C133.018 15.0353 133.483 15.4608 133.476 16.0537C133.467 16.9622 132.37 17.3645 131.35 17.3797C129.561 17.4071 128.525 16.9034 127.698 16.5239L127.053 19.4923C127.885 19.8675 129.418 20.1939 131.006 20.2107C134.743 20.2107 137.186 18.3929 137.197 15.5777ZM122.471 6.45798L116.711 19.9981H112.953L110.118 9.19214C109.946 8.52763 109.796 8.28339 109.273 8.00261C108.418 7.54519 107.007 7.11731 105.766 6.85114L105.85 6.45798H111.9C112.67 6.45798 113.364 6.96321 113.54 7.83785L115.038 15.6737L118.736 6.45798H122.471Z" fill="#1434CB"/>
<path d="M211.403 6.16528H202.04C202.585 9.25623 205.585 12.1654 208.858 12.1654H216.312C216.403 11.8926 216.403 11.4381 216.403 11.1653C216.403 8.43804 214.131 6.16528 211.403 6.16528Z" fill="url(#paint2_linear_1_1720)"/>
<path d="M202.857 12.7095V20.255H207.402V16.255H211.402C213.584 16.255 215.493 14.7095 216.129 12.7095H202.857Z" fill="#4FAD50"/>
<path d="M186.856 6.16528V20.1654H190.856C190.856 20.1654 191.856 20.1654 192.401 19.1654C195.129 13.8017 195.947 12.1654 195.947 12.1654H196.492V20.1654H201.038V6.16528H197.038C197.038 6.16528 196.038 6.2562 195.492 7.1653C193.22 11.8017 191.947 14.1654 191.947 14.1654H191.401V6.16528H186.856Z" fill="#4FAD50"/>
<path d="M167.766 20.2558V6.25562H172.311C172.311 6.25562 173.584 6.25561 174.311 8.25563C176.13 13.5284 176.312 14.2557 176.312 14.2557C176.312 14.2557 176.675 12.983 178.312 8.25563C179.039 6.25561 180.312 6.25562 180.312 6.25562H184.857V20.2558H180.312V12.7102H179.766L177.221 20.2558H175.221L172.675 12.7102H172.13V20.2558H167.766Z" fill="#4FAD50"/>
<defs>
<radialGradient id="paint0_angular_1_1720" cx="0" cy="0" r="1" gradientUnits="userSpaceOnUse" gradientTransform="translate(13.8073 13.2106) rotate(90) scale(13.2106)">
<stop offset="0.203225" stop-color="#DFFA16"/>
<stop offset="0.307936" stop-color="#8CFB6B"/>
<stop offset="0.369792" stop-color="#10E7EF"/>
<stop offset="0.494792" stop-color="#0DA9DA"/>
<stop offset="0.583333" stop-color="#0B86CE"/>
<stop offset="0.729406" stop-color="#219E39"/>
<stop offset="1" stop-color="#7EF629"/>
</radialGradient>
<linearGradient id="paint1_linear_1_1720" x1="8.41064" y1="12.3741" x2="25.3425" y2="7.35038" gradientUnits="userSpaceOnUse">
<stop stop-color="#219F36"/>
<stop offset="1" stop-color="#24A139"/>
</linearGradient>
<linearGradient id="paint2_linear_1_1720" x1="202.023" y1="9.20832" x2="216.371" y2="9.20832" gradientUnits="userSpaceOnUse">
<stop stop-color="#27B1E6"/>
<stop offset="1" stop-color="#148ACA"/>
</linearGradient>
</defs>
</svg>
