<svg width="120" height="12" viewBox="0 0 120 12" fill="none" xmlns="http://www.w3.org/2000/svg">
<path d="M6 0L7.67871 3.68945L11.7063 4.1459L8.71622 6.88255L9.52671 10.8541L6 8.856L2.47329 10.8541L3.28378 6.88255L0.293661 4.1459L4.32129 3.68945L6 0Z" fill="#FF9D29"/>
<path d="M26 0L27.6787 3.68945L31.7063 4.1459L28.7162 6.88255L29.5267 10.8541L26 8.856L22.4733 10.8541L23.2838 6.88255L20.2937 4.1459L24.3213 3.68945L26 0Z" fill="#FF9D29"/>
<path d="M46 0L47.6787 3.68945L51.7063 4.1459L48.7162 6.88255L49.5267 10.8541L46 8.856L42.4733 10.8541L43.2838 6.88255L40.2937 4.1459L44.3213 3.68945L46 0Z" fill="#FF9D29"/>
<path d="M66 0L67.6787 3.68945L71.7063 4.1459L68.7162 6.88255L69.5267 10.8541L66 8.856L62.4733 10.8541L63.2838 6.88255L60.2937 4.1459L64.3213 3.68945L66 0Z" fill="#FF9D29"/>
<path d="M86 0L87.6787 3.68945L91.7063 4.1459L88.7162 6.88255L89.5267 10.8541L86 8.856L82.4733 10.8541L83.2838 6.88255L80.2937 4.1459L84.3213 3.68945L86 0Z" fill="#FF9D29"/>
</svg>
